<svg width="178" height="178" viewBox="0 0 178 178" fill="none" xmlns="http://www.w3.org/2000/svg">
<path d="M111.25 0C117.404 0 122.375 4.98191 122.375 11.125V22.25V22.3021C135.795 23.0531 147.511 31.8071 151.995 44.6043L164.233 79.5438C172.298 82.8813 178 90.8426 178 100.125V166.875C178 173.029 173.029 178 166.875 178H155.75C149.596 178 144.625 173.029 144.625 166.875V150.188H33.375V166.875C33.375 173.029 28.4035 178 22.25 178H11.125C4.98191 178 0 173.029 0 166.875V100.125C0 90.8426 5.68766 82.8813 13.7707 79.5438L26.0047 44.6043C30.4895 31.8071 42.2055 23.0531 55.625 22.3021V22.25V11.125C55.625 4.98191 60.5965 0 66.75 0H111.25ZM57.5023 44.5C52.7742 44.5 48.5676 47.4898 47.0031 51.9398L37.9293 77.875H140.071L130.997 51.9398C129.432 47.4898 125.226 44.5 120.498 44.5H57.5023ZM33.375 122.375C39.5285 122.375 44.5 117.404 44.5 111.25C44.5 105.096 39.5285 100.125 33.375 100.125C27.2215 100.125 22.25 105.096 22.25 111.25C22.25 117.404 27.2215 122.375 33.375 122.375ZM144.625 100.125C138.471 100.125 133.5 105.096 133.5 111.25C133.5 117.404 138.471 122.375 144.625 122.375C150.779 122.375 155.75 117.404 155.75 111.25C155.75 105.096 150.779 100.125 144.625 100.125Z" fill="white"/>
</svg>
