<svg width="166" height="132" viewBox="0 0 166 132" fill="none" xmlns="http://www.w3.org/2000/svg">
<path d="M58.1 66C76.4378 66 91.3 51.2248 91.3 33C91.3 14.7752 76.4378 0 58.1 0C39.7622 0 24.9 14.7752 24.9 33C24.9 51.2248 39.7622 66 58.1 66ZM71.2503 78.375H44.9497C20.1301 78.375 0 98.3812 0 123.054C0 128.004 4.0255 132 8.98994 132H107.215C112.18 132 116.2 128.004 116.2 123.054C116.2 98.3812 96.0725 78.375 71.2503 78.375ZM159.775 51.5625H147.325V39.1875C147.325 35.7844 144.55 33 141.1 33C137.65 33 134.875 35.7715 134.875 39.1875V51.5625H122.425C119.001 51.5625 116.2 54.3469 116.2 57.75C116.2 61.1531 118.988 63.9375 122.425 63.9375H134.875V76.3125C134.875 79.7414 137.676 82.5 141.1 82.5C144.524 82.5 147.325 79.7285 147.325 76.3125V63.9375H159.775C163.225 63.9375 166 61.1789 166 57.75C166 54.3211 163.225 51.5625 159.775 51.5625Z" fill="white"/>
</svg>
